<svg width="24" height="24" viewBox="0 0 24 24" fill="none" xmlns="http://www.w3.org/2000/svg">
<path d="M5.3418 5.3418C5.56966 5.11393 5.8431 5 6.16211 5C6.48112 5 6.75456 5.11393 6.98242 5.3418L18.6582 17.0176C18.8861 17.2454 19 17.5234 19 17.8516C19 18.1706 18.8861 18.444 18.6582 18.6719V18.6582C18.4303 18.8861 18.1569 19 17.8379 19C17.5189 19 17.2454 18.8861 17.0176 18.6582L5.3418 6.99609C5.11393 6.76823 5 6.49479 5 6.17578C5 5.84766 5.11393 5.56966 5.3418 5.3418ZM18.6719 5.3418H18.6582C18.8861 5.56966 19 5.8431 19 6.16211C19 6.48112 18.8861 6.75456 18.6582 6.98242L6.99609 18.6582C6.76823 18.8861 6.49023 19 6.16211 19C5.8431 19 5.56966 18.8861 5.3418 18.6582C5.11393 18.4303 5 18.1569 5 17.8379C5 17.5189 5.11393 17.2454 5.3418 17.0176L17.0176 5.3418C17.2454 5.11393 17.5189 5 17.8379 5C18.166 5 18.444 5.11393 18.6719 5.3418Z" fill="black" fill-opacity="0.5"/>
</svg>
