<svg width="24" height="24" viewBox="0 0 24 24" fill="none" xmlns="http://www.w3.org/2000/svg">
<path d="M12.0005 8C13.1005 8 14.0005 7.1 14.0005 6C14.0005 4.9 13.1005 4 12.0005 4C10.9005 4 10.0005 4.9 10.0005 6C10.0005 7.1 10.9005 8 12.0005 8ZM12.0005 10C10.9005 10 10.0005 10.9 10.0005 12C10.0005 13.1 10.9005 14 12.0005 14C13.1005 14 14.0005 13.1 14.0005 12C14.0005 10.9 13.1005 10 12.0005 10ZM12.0005 16C10.9005 16 10.0005 16.9 10.0005 18C10.0005 19.1 10.9005 20 12.0005 20C13.1005 20 14.0005 19.1 14.0005 18C14.0005 16.9 13.1005 16 12.0005 16Z" fill="black" fill-opacity="0.5"/>
</svg>
